<svg width="48" height="48" viewBox="0 0 48 48" fill="none" xmlns="http://www.w3.org/2000/svg">
<path d="M24 8C24 7.44772 23.5519 6.99693 23.0005 7.0294C19.9895 7.2067 17.0732 8.18261 14.5553 9.86502C11.7597 11.733 9.58074 14.388 8.29406 17.4944C7.00737 20.6007 6.67071 24.0189 7.32666 27.3165C7.98261 30.6142 9.6017 33.6433 11.9792 36.0208C14.3567 38.3983 17.3858 40.0174 20.6835 40.6733C23.9811 41.3293 27.3993 40.9926 30.5056 39.7059C33.612 38.4193 36.267 36.2403 38.135 33.4447C39.8174 30.9268 40.7933 28.0105 40.9706 24.9995C41.0031 24.4481 40.5523 24 40 24H25C24.4477 24 24 23.5523 24 23V8Z" stroke="#7D4BC7" stroke-width="2" stroke-linecap="round" stroke-linejoin="round"/>
</svg>
