<svg width="28" height="28" viewBox="0 0 28 28" fill="none" xmlns="http://www.w3.org/2000/svg">
<path d="M17.25 5.875C17.25 4.3605 17.25 3.60325 17.003 3.00688C16.8397 2.61229 16.6002 2.25377 16.2982 1.9518C15.9962 1.64983 15.6377 1.41033 15.2431 1.247C14.6468 1 13.8895 1 12.375 1H7.5C4.43525 1 2.9045 1 1.95225 1.95225C1 2.9045 1 4.43525 1 7.5V12.375C1 13.8895 1 14.6468 1.247 15.2431C1.41033 15.6377 1.64983 15.9962 1.9518 16.2982C2.25377 16.6002 2.61229 16.8397 3.00688 17.003C3.60325 17.25 4.3605 17.25 5.875 17.25" stroke="#7D7D7D" stroke-width="2" stroke-linecap="round"/>
<path d="M23.75 10.75H14C12.2051 10.75 10.75 12.2051 10.75 14V23.75C10.75 25.5449 12.2051 27 14 27H23.75C25.5449 27 27 25.5449 27 23.75V14C27 12.2051 25.5449 10.75 23.75 10.75Z" stroke="#7D7D7D" stroke-width="2"/>
</svg>
