<svg width="25" height="24" viewBox="0 0 25 24" fill="none" xmlns="http://www.w3.org/2000/svg">
<path d="M15.5007 7.00045L9.00068 13.5005C8.60286 13.8983 8.37936 14.4378 8.37936 15.0005C8.37936 15.5631 8.60286 16.1026 9.00068 16.5005C9.3985 16.8983 9.93807 17.1218 10.5007 17.1218C11.0633 17.1218 11.6029 16.8983 12.0007 16.5005L18.5007 10.0005C19.2963 9.2048 19.7433 8.12567 19.7433 7.00045C19.7433 5.87523 19.2963 4.7961 18.5007 4.00045C17.705 3.2048 16.6259 2.75781 15.5007 2.75781C14.3755 2.75781 13.2963 3.2048 12.5007 4.00045L6.00068 10.5005C4.80721 11.6939 4.13672 13.3126 4.13672 15.0005C4.13672 16.6883 4.80721 18.307 6.00068 19.5005C7.19415 20.6939 8.81285 21.3644 10.5007 21.3644C12.1885 21.3644 13.8072 20.6939 15.0007 19.5005L21.5007 13.0005" stroke="#19191C" stroke-width="2" stroke-linecap="round" stroke-linejoin="round"/>
</svg>
