<svg width="48" height="48" viewBox="0 0 48 48" fill="none" xmlns="http://www.w3.org/2000/svg" class="" style="">
<path d="M31.3965 26.7085L30.7567 26.4353C29.9539 26.0925 29.0459 26.0925 28.2431 26.4353L22.4987 28.8885C21.6641 29.2449 20.7512 28.5816 20.8323 27.6777L21.3903 21.4564C21.4682 20.587 21.1876 19.7235 20.6135 19.0659L16.5053 14.3608C15.9084 13.6771 16.2571 12.6039 17.1419 12.4017L23.2311 11.0098C24.0821 10.8153 24.8166 10.2816 25.2646 9.53242L28.47 4.1713C28.9357 3.39236 30.0641 3.39236 30.5299 4.1713L33.7352 9.53242C34.1832 10.2816 34.9178 10.8153 35.7687 11.0098L41.858 12.4017C42.7427 12.6039 43.0914 13.6771 42.4945 14.3608L38.3863 19.0659C37.8122 19.7235 37.5316 20.587 37.6096 21.4564L38.1676 27.6777C38.2486 28.5816 37.3357 29.2449 36.5011 28.8885L31.1623 26.6085" stroke="#60C730" stroke-width="2" stroke-linecap="round" class="GCzPqVfC_0"></path>
<style data-made-with="vivus-instant">.GCzPqVfC_0{stroke-dasharray:89 91;stroke-dashoffset:90;}.start .GCzPqVfC_0{animation:GCzPqVfC_draw 1100ms ease-in-out 0ms forwards;}@keyframes GCzPqVfC_draw{100%{stroke-dashoffset:0;}}@keyframes GCzPqVfC_fade{0%{stroke-opacity:1;}92.45283018867924%{stroke-opacity:1;}100%{stroke-opacity:0;}}</style></svg>
