<svg width="48" height="48" viewBox="0 0 48 48" fill="none" xmlns="http://www.w3.org/2000/svg">
<path d="M43 25C43 28.7275 43 30.5913 42.391 32.0615C41.5791 34.0217 40.0217 35.5791 38.0615 36.391C36.5913 37 34.7275 37 31 37H20C13.425 37 10.1375 37 7.92485 35.1841C7.51978 34.8516 7.14835 34.4802 6.81592 34.0751C5 31.8624 5 28.575 5 22C5 15.425 5 12.1375 6.81592 9.92485C7.14835 9.51978 7.51978 9.14835 7.92485 8.81592C10.1375 7 13.425 7 20 7H21" stroke="#7D4BC7" stroke-width="2" stroke-linecap="round"/>
<path d="M19.5 40H28.5" stroke="#7D4BC7" stroke-width="2" stroke-linecap="round"/>
</svg>
