<svg width="48" height="48" viewBox="0 0 48 48" fill="none" xmlns="http://www.w3.org/2000/svg">
<path d="M22 31L26 17" stroke="#7D4BC7" stroke-width="2" stroke-linecap="round" stroke-linejoin="round"/>
<path d="M44 24C42.1428 25.1644 40.2918 25.9709 39.1897 27.9453C37.6378 30.7258 38.1264 34.7957 37.3935 37.8169C36.5 41.5 33.3383 43 31 43" stroke="#7D4BC7" stroke-width="2" stroke-linecap="round" stroke-linejoin="round"/>
<path d="M44 24C42.1428 22.8356 40.2918 22.0291 39.1897 20.0547C37.6378 17.2742 38.1264 13.2043 37.3935 10.1831C36.5 6.5 33.3383 5 31 5" stroke="#7D4BC7" stroke-width="2" stroke-linecap="round" stroke-linejoin="round"/>
<path d="M4 24C5.85718 25.1644 7.70824 25.9709 8.81026 27.9453C10.3622 30.7258 9.87359 34.7957 10.6065 37.8169C11.5 41.5 14.6617 43 17 43" stroke="#7D4BC7" stroke-width="2" stroke-linecap="round" stroke-linejoin="round"/>
<path d="M4 24C5.85718 22.8356 7.70824 22.0291 8.81026 20.0547C10.3622 17.2742 9.87359 13.2043 10.6065 10.1831C11.5 6.5 14.6617 5 17 5" stroke="#7D4BC7" stroke-width="2" stroke-linecap="round" stroke-linejoin="round"/>
</svg>
